<?xml version="1.0" encoding="utf-8"?>
<!-- Generator: Adobe Illustrator 18.1.1, SVG Export Plug-In . SVG Version: 6.00 Build 0)  -->
<svg version="1.1" id="NYCIRB" xmlns="http://www.w3.org/2000/svg" xmlns:xlink="http://www.w3.org/1999/xlink" x="0px" y="0px"
	 viewBox="0 0 1283.2 346.8" enable-background="new 0 0 1283.2 346.8" xml:space="preserve">
<g>
	<polygon fill="#FFFFFF" points="555,273.3 555,273.3 555,273.3 	"/>
	<path fill="#FFFFFF" d="M555,162.4C555,162.4,555,162.4,555,162.4L555,162.4L555,162.4z"/>
	<path fill="#FFFFFF" d="M633.5,115.5l-54.7,93.2v56.3c0,4.7-3.8,8.4-8.4,8.4H555v0l0,0h-15.3c-4.6,0-8.4-3.8-8.4-8.4v-56.3
		l-54.7-93.2c-0.9-1.5-1.5-3.2-1-4.9c0.2-0.7,0.4-1.2,0.7-1.6c1.6-2.3,4.6-2.3,4.6-2.3h35.8c0,0,7.8-1.7,13.8,9.8
		c5.9,11.4,24,45.2,24.4,46l0,0c0,0,0,0,0,0c0.4-0.8,18.5-34.6,24.4-46c6-11.5,13.8-9.8,13.8-9.8h35.8c0,0,3,0,4.6,2.3
		c0.3,0.4,0.5,1,0.7,1.6C634.9,112.3,634.3,114,633.5,115.5z"/>
	<polygon fill="#FFFFFF" points="555,273.3 555,273.3 555,273.3 	"/>
	<path fill="#FFFFFF" d="M555,162.4C555,162.4,555,162.4,555,162.4L555,162.4L555,162.4z"/>
	<polygon fill="#FFFFFF" points="43.3,153.9 43.3,307.7 0,259.3 0,153.9 	"/>
	<polygon fill="#231F20" points="78.1,346.8 78.1,346.8 78.1,346.8 	"/>
	<polygon fill="#FFFFFF" points="97.5,323.8 78.1,346.8 54.3,320.1 54.3,89.6 97.5,89.6 	"/>
	<polygon fill="#FFFFFF" points="151.8,0 151.8,259.7 108.6,310.8 108.6,0 	"/>
	<path fill="#FFFFFF" d="M431,114.8v150.4c0,4.5-3.7,8.1-8.2,8.1c0,0-1.9,0-4.6,0c-6,0-21,0-23.1,0c-0.1,0-0.3,0-0.4,0h0
		c-2.7-0.1-5.3-0.5-6.8-1.9c-2-1.9-9.1-12.4-9.1-12.4l-26.3-40.7c0,0-9.9-15.8-11.8-19.9c-1.7-3.7-3.9-8.7-6.1-14.6
		c-2.1-5.6-4.2-11.9-5.9-18.5H327c0,0,8.3,33.7,7.8,52.8v47c0,4.6-3.7,8.3-8.3,8.3h-27.7c-4.6,0-8.3-3.7-8.3-8.3v-150
		c0-4.6,3.7-8.3,8.3-8.3h27.7c0,0,0.2,0,0.4,0c1.5,0,6.8,0.2,8.6,1.8c2.1,1.9,42.6,65,42.6,65s4.4,7.4,9.5,18.8
		c2.8,6.3,5.9,13.7,8.6,21.8h2.1c0,0-5.9-13.1-8.8-30.8c-0.2-1.3-0.6-2.6-1.1-7.8c-0.5-5.9-0.9-14-0.9-14v-46.6
		c0-4.5,3.7-8.2,8.2-8.2h27.2C427.4,106.6,431,110.3,431,114.8z"/>
	<path fill="#FFFFFF" d="M1259.4,185.7c0,0,16.7-9.2,16.7-34.8c0-44.7-45.9-44.3-45.9-44.3h-45.4h-31.8c-4.1,0-7.5,3.4-7.5,7.6
		v151.2c0,4.1,3.4,7.9,7.5,7.9l27.4,0h47.5c27.1,0,55.1-14.2,55.1-47.8C1283.2,195.4,1259.4,185.7,1259.4,185.7z M1192.3,144.7h25.2
		c6.4,0,11.7,5.2,11.7,11.7v1.7c0,6.4-5.2,11.7-11.7,11.7h-25.2V144.7z M1233.9,223.1c0,6.5-5.2,11.7-11.7,11.7h-29.8v-27h29.8
		c6.5,0,11.7,5.2,11.7,11.7V223.1z"/>
	<path fill="#FFFFFF" d="M894.2,273.3h-31.7c-4.1,0-7.5-3.4-7.5-7.5V114.1c0-4.1,3.4-7.5,7.5-7.5h31.7c4.1,0,7.5,3.4,7.5,7.5v151.7
		C901.7,269.9,898.3,273.3,894.2,273.3z"/>
	<path fill="#FFFFFF" d="M1096.3,263.1c-0.8-1.7-23-43.7-23-43.7s-2.6-5.1-5.4-8c0,0,26.1-11.5,25.2-48.1c0.5-13-3-54.6-55.7-56.7
		h-40.1c-1.9,0-3,0-3,0h-28.6c-4.1,0-7.5,3.4-7.5,7.5v151.7c0,4.1,3.4,7.5,7.5,7.5h31.7c4.1,0,7.5-3.4,7.5-7.5v-47.7h8.3
		c0,0,7.4-0.5,11.8,7.1c4.3,7.6,16.9,35.1,16.9,35.1s1.8,4,6.1,8.5c3.1,3.3,8.4,4.5,22.2,4.5h20.8c0,0,3.6-0.2,5.4-3.4
		S1097.1,264.8,1096.3,263.1z M1032.8,178.6h-28.1v-30.5h27.2c0,0,13.3,1.5,13.3,15.4C1045.2,177.7,1032.8,178.6,1032.8,178.6z"/>
	<path d="M1228,273.3c-5.3,0-47.5,0-47.5,0"/>
	<path fill="#FFFFFF" d="M712.6,212.6c0-9.6,0.1-49,0.1-49c0-2.8,0.6-5.4,1.7-7.8c3-6.6,9.6-11.2,17.3-11.2h9.6c0.3,0,2,0,2.3,0
		c3.8,0,8.8,2.2,11.7,4.4c3.7,2.9,5.1,6.3,5.1,6.4c0,0,1.5,2.7,2.5,5.9c1.4,4.2,4.5,5.3,7.9,5.3c0.4,0,0.8,0,1.1-0.1
		c0.2,0,0.3,0,0.5-0.1h0l1.8-0.6h0l8.9-3l18.7-6.3l0.6-0.2l0.2-0.1c3-1.2,5-4.1,5-7.4c0-0.6-0.1-1.2-0.2-1.8c0,0,0,0,0,0
		c-0.1-0.2-0.1-0.5-0.2-0.7c0-0.1-0.1-0.2-0.1-0.3c-9.1-28.5-36.5-43.4-68.9-43.4c-11.1,0-21.2,1.6-30.1,4.6
		c-26.6,8.9-42.1,30.2-42.1,57.2v48.9c0,34,18.9,51.8,42.6,59.2c9.4,2.9,19.5,4.2,29.6,4.2c36.3,0,60.7-16.8,69-43.1
		c0-0.2,0.1-0.4,0.2-0.5c0,0,0,0,0,0c0.1-0.6,0.2-1.3,0.2-2c0-3.3-2-6.2-4.9-7.4l-0.6-0.2l-0.1,0l-21.3-7.9l-7-2.6
		c-0.9-0.4-1.9-0.5-2.9-0.5c-3.6,0-6.7,2.4-7.7,5.7c-0.1,0.5-1.2,3.2-2,5.2c-0.4,1.1-1.9,3.7-2.5,4.5c-4,4.8-11.2,7.9-17.6,7.9h-8.7
		c-8.5,0-16.2-5.5-18.7-13.2C713.6,222.4,712.6,219.8,712.6,212.6z"/>
</g>
</svg>
